<?xml version="1.0" standalone="no"?>
<!DOCTYPE svg PUBLIC "-//W3C//DTD SVG 20010904//EN"
 "http://www.w3.org/TR/2001/REC-SVG-20010904/DTD/svg10.dtd">
<svg version="1.0" xmlns="http://www.w3.org/2000/svg"
 width="500.000000pt" height="295.000000pt" viewBox="0 0 500.000000 295.000000"
 preserveAspectRatio="xMidYMid meet">
<metadata>
Created by potrace 1.16, written by Peter Selinger 2001-2019
</metadata>
<g transform="translate(0.000000,295.000000) scale(0.100000,-0.100000)"
fill="#000000" stroke="none">
<path d="M1465 2939 c-335 -46 -597 -138 -832 -295 -216 -143 -375 -322 -482
-539 -113 -228 -151 -407 -151 -705 0 -420 93 -688 323 -927 242 -252 573
-407 980 -459 181 -23 616 -15 872 15 262 32 237 18 252 138 7 56 31 208 53
339 22 130 38 239 36 241 -2 3 -73 -11 -158 -31 -84 -19 -198 -43 -253 -51
-141 -22 -421 -31 -526 -16 -346 50 -596 271 -655 579 -40 209 1 447 107 624
117 195 271 317 484 387 151 50 196 56 395 55 194 0 318 -16 550 -68 58 -14
107 -23 109 -21 2 2 -1 91 -8 197 -6 106 -13 257 -17 334 l-6 142 -107 16
c-291 45 -331 48 -611 51 -157 2 -316 -1 -355 -6z"/>
<path d="M2700 2811 c0 -75 -2 -208 -5 -296 -3 -88 -7 -248 -10 -355 -19 -688
-34 -1045 -60 -1425 -16 -215 -51 -617 -61 -691 l-6 -42 494 0 493 0 3 242 c3
312 22 909 28 915 2 3 258 5 568 5 l563 0 6 225 c4 124 10 270 13 323 l7 98
-359 -7 c-197 -3 -451 -3 -564 2 l-205 7 9 245 9 244 672 -3 673 -3 7 135 c3
74 10 196 16 270 5 74 9 160 9 190 l0 55 -1150 1 -1150 1 0 -136z"/>
</g>
</svg>
